<svg xmlns="http://www.w3.org/2000/svg" version="1.1" xmlns:xlink="http://www.w3.org/1999/xlink" xmlns:svgjs="http://svgjs.dev/svgjs" width="1500" height="935" viewBox="0 0 1500 935"><g transform="matrix(1,0,0,1,-0.9090909090909918,0.3785425101214628)"><svg viewBox="0 0 396 247" data-background-color="#ffffff" preserveAspectRatio="xMidYMid meet" height="935" width="1500" xmlns="http://www.w3.org/2000/svg" xmlns:xlink="http://www.w3.org/1999/xlink"><g id="tight-bounds" transform="matrix(1,0,0,1,0.2400000000000091,-0.09999999999999432)"><svg viewBox="0 0 395.52 247.2" height="247.2" width="395.52"><g><svg></svg></g><g><svg viewBox="0 0 395.52 247.2" height="247.2" width="395.52"><g transform="matrix(1,0,0,1,75.54432,98.95974193548386)"><svg viewBox="0 0 244.43135999999998 49.280516129032264" height="49.280516129032264" width="244.43135999999998"><g><svg viewBox="0 0 244.43135999999998 49.280516129032264" height="49.280516129032264" width="244.43135999999998"><g><svg viewBox="0 0 244.43135999999998 49.280516129032264" height="49.280516129032264" width="244.43135999999998"><g><svg viewBox="0 0 244.43135999999998 49.280516129032264" height="49.280516129032264" width="244.43135999999998"><g id="textblocktransform"><svg viewBox="0 0 244.43135999999998 49.280516129032264" height="49.280516129032264" width="244.43135999999998" id="textblock"><g><svg viewBox="0 0 244.43135999999998 49.280516129032264" height="49.280516129032264" width="244.43135999999998"><g transform="matrix(1,0,0,1,0,0)"><svg width="244.43135999999998" viewBox="1 -26.9 136.39 27.5" height="49.280516129032264" data-palette-color="#6b7280"><path d="M21.35-21.9L21.35-21.9 21.35-1.6Q21.35-0.9 22.05-0.9L22.05-0.9 24.4-0.9 24.4 0 21.95 0Q18.95 0 17.75 0.3L17.75 0.3 17.75-6.45Q16.05 0.6 10.25 0.6L10.25 0.6Q7.65 0.6 5.85-1.28 4.05-3.15 4.05-7L4.05-7 4.05-20Q4.05-20.7 3.35-20.7L3.35-20.7 1-20.7 1-21.6 3.45-21.6Q6.45-21.6 7.65-21.9L7.65-21.9 7.65-6.35Q7.65-3.8 8.78-2.58 9.9-1.35 11.75-1.35L11.75-1.35Q14.4-1.35 16.07-4.58 17.75-7.8 17.75-13.85L17.75-13.85 17.75-20Q17.75-20.7 17.05-20.7L17.05-20.7 14.7-20.7 14.7-21.6 17.15-21.6Q20.15-21.6 21.35-21.9ZM61.2-14.6L61.2-14.6 61.2-1.5Q61.2-0.9 61.9-0.9L61.9-0.9 64.25-0.9 64.25 0 55.25 0 55.25-0.9 56.9-0.9Q57.6-0.9 57.6-1.5L57.6-1.5 57.6-15.25Q57.6-17.8 56.55-19.03 55.5-20.25 53.7-20.25L53.7-20.25Q51.2-20.25 49.6-17.03 48-13.8 48-7.75L48-7.75 48-1.6Q48-0.9 48.7-0.9L48.7-0.9 51.05-0.9 51.05 0 42.05 0 42.05-0.9 43.7-0.9Q44.4-0.9 44.4-1.5L44.4-1.5 44.4-15.25Q44.4-17.8 43.35-19.03 42.3-20.25 40.5-20.25L40.5-20.25Q38-20.25 36.4-17.03 34.8-13.8 34.8-7.75L34.8-7.75 34.8-1.6Q34.8-0.9 35.5-0.9L35.5-0.9 37.15-0.9 37.15 0 28.15 0 28.15-0.9 30.5-0.9Q31.2-0.9 31.2-1.5L31.2-1.5 31.2-20Q31.2-20.7 30.5-20.7L30.5-20.7 28.15-20.7 28.15-21.6 30.6-21.6Q33.6-21.6 34.8-21.9L34.8-21.9 34.8-15.2Q36.45-22.2 41.9-22.2L41.9-22.2Q44.3-22.2 46.07-20.45 47.85-18.7 48-15.15L48-15.15Q49.65-22.2 55.1-22.2L55.1-22.2Q57.6-22.2 59.4-20.33 61.2-18.45 61.2-14.6ZM87.34-21.9L87.34-21.9 87.34-1.6Q87.34-0.9 88.05-0.9L88.05-0.9 90.4-0.9 90.4 0 87.95 0Q84.95 0 83.75 0.3L83.75 0.3 83.75-6.45Q82.05 0.6 76.25 0.6L76.25 0.6Q73.65 0.6 71.84-1.28 70.05-3.15 70.05-7L70.05-7 70.05-20Q70.05-20.7 69.34-20.7L69.34-20.7 67-20.7 67-21.6 69.45-21.6Q72.45-21.6 73.65-21.9L73.65-21.9 73.65-6.35Q73.65-3.8 74.77-2.58 75.9-1.35 77.75-1.35L77.75-1.35Q80.4-1.35 82.07-4.58 83.75-7.8 83.75-13.85L83.75-13.85 83.75-20Q83.75-20.7 83.05-20.7L83.05-20.7 80.7-20.7 80.7-21.6 83.15-21.6Q86.15-21.6 87.34-21.9ZM94.72-0.23Q93.89-1.05 93.89-2.2 93.89-3.35 94.72-4.17 95.54-5 96.69-5 97.84-5 98.67-4.17 99.49-3.35 99.49-2.2 99.49-1.05 98.67-0.23 97.84 0.6 96.69 0.6 95.54 0.6 94.72-0.23ZM108.39-26.9L108.39-26.9 109.14-26.9 109.14-21.6 114.14-21.6 114.14-20.7 109.14-20.7 109.14-3.75Q109.14-1.05 110.64-1.05L110.64-1.05Q111.34-1.05 111.87-1.7 112.39-2.35 112.39-3.2 112.39-4.05 112.24-4.8L112.24-4.8 113.19-4.95Q113.39-4.2 113.39-3.3L113.39-3.3Q113.39-1.5 112.32-0.45 111.24 0.6 109.49 0.6 107.74 0.6 106.64-0.83 105.54-2.25 105.54-5.1L105.54-5.1 105.54-20Q105.54-20.7 104.84-20.7L104.84-20.7 102.49-20.7 102.49-21.6 104.94-21.6Q106.54-21.6 108.39-26.9ZM119.94-2.45Q117.14-5.5 117.14-10.8 117.14-16.1 119.94-19.15 122.74-22.2 127.24-22.2 131.74-22.2 134.56-19.15 137.39-16.1 137.39-10.8 137.39-5.5 134.56-2.45 131.74 0.6 127.24 0.6 122.74 0.6 119.94-2.45ZM122.74-18.32Q120.94-15.55 120.94-10.8 120.94-6.05 122.74-3.28 124.54-0.5 127.24-0.5 129.94-0.5 131.76-3.28 133.59-6.05 133.59-10.8 133.59-15.55 131.76-18.32 129.94-21.1 127.24-21.1 124.54-21.1 122.74-18.32Z" opacity="1" transform="matrix(1,0,0,1,0,0)" fill="#6b7280" class="wordmark-text-0" data-fill-palette-color="primary" id="text-0"></path></svg></g></svg></g></svg></g></svg></g></svg></g></svg></g></svg></g><path d="M190.63 92.96L190.63 32.304 8.037 32.304 8.037 214.896 190.63 214.896 190.63 154.24 186.186 154.24 186.186 210.452 12.481 210.452 12.481 36.748 186.186 36.748 186.186 92.96Z" fill="#6b7280" stroke="transparent" data-fill-palette-color="tertiary"></path></svg></g><defs></defs></svg><rect width="395.52" height="247.2" fill="none" stroke="none" visibility="hidden"></rect></g></svg></g></svg>